<?xml version="1.0" encoding="UTF-8" standalone="no"?>
<svg
   version="1.0"
   width="512.000000pt"
   height="512.000000pt"
   viewBox="0 0 512.000000 512.000000"
   preserveAspectRatio="xMidYMid meet"
   id="svg989"
   sodipodi:docname="Crypto_Icon (1).svg"
   inkscape:version="1.1 (c68e22c387, 2021-05-23)"
   xmlns:inkscape="http://www.inkscape.org/namespaces/inkscape"
   xmlns:sodipodi="http://sodipodi.sourceforge.net/DTD/sodipodi-0.dtd"
   xmlns="http://www.w3.org/2000/svg"
   xmlns:svg="http://www.w3.org/2000/svg">
  <defs
     id="defs993" />
  <sodipodi:namedview
     id="namedview991"
     pagecolor="#ffffff"
     bordercolor="#666666"
     borderopacity="1.0"
     inkscape:pageshadow="2"
     inkscape:pageopacity="0.0"
     inkscape:pagecheckerboard="0"
     inkscape:document-units="pt"
     showgrid="false"
     inkscape:snap-grids="true"
     inkscape:zoom="0.6394043"
     inkscape:cx="423.832"
     inkscape:cy="524.70714"
     inkscape:window-width="1485"
     inkscape:window-height="1081"
     inkscape:window-x="1060"
     inkscape:window-y="160"
     inkscape:window-maximized="0"
     inkscape:current-layer="g987" />
  <g
     transform="translate(0.000000,512.000000) scale(0.100000,-0.100000)"
     fill="#000000"
     stroke="none"
     id="g987">
    <path
       style="fill:#273839;fill-opacity:1;stroke:none;stroke-width:0.552942;stroke-opacity:1"
       d="m 255.51313,16.565576 c -3.44666,0.478257 -2.42627,5.153203 -0.85749,7.081328 6.36094,10.550626 15.34377,19.127508 23.94497,27.791807 1.47513,1.694974 -1.80049,2.687784 -2.71188,3.57133 -12.52356,7.239025 -25.85061,13.266945 -37.09777,22.528175 -9.22945,6.000636 -19.28097,10.73765 -29.35128,15.073062 -10.18723,4.159633 -20.39688,8.419612 -30.99526,11.405602 -14.70752,5.05198 -30.23951,6.32115 -45.51208,8.59599 -3.58002,0.97601 -8.19252,0.54253 -10.96654,3.32025 -1.765,2.85512 0.75005,6.49035 3.79686,6.94419 15.05058,6.42201 29.8738,14.63461 46.38801,16.477 2.80665,0.81536 0.43802,4.27691 -0.62854,5.71517 -10.11773,12.33023 -21.99807,23.2771 -31.24724,36.38134 -5.46415,7.86659 -11.31871,15.52239 -19.43177,20.78035 -13.39538,9.75394 -26.870586,19.45922 -40.901985,28.22462 -2.480145,1.37733 -1.632267,4.58448 0.642579,5.63526 5.516118,2.11218 11.7418,1.16969 17.525234,1.88398 3.853402,0.30899 7.936332,0.23044 11.658652,0.88289 1.04113,8.22107 -4.28387,15.44658 -5.31407,23.40563 -2.59585,8.52183 -5.154439,17.17886 -5.043254,26.19026 0.38535,3.17993 -1.024003,7.42125 1.517814,9.91231 3.94925,1.69953 6.24989,-3.00338 8.0473,-5.63389 2.23062,-2.50677 4.01131,-6.52441 7.5625,-7.18313 3.21269,0.26027 2.45317,4.69929 2.97847,6.91838 0.94986,20.33085 4.31647,40.62385 10.05599,60.20168 2.09866,6.34417 3.05958,13.00661 5.2569,19.28683 2.27944,3.84673 8.00245,4.9886 8.70344,9.93567 2.28951,12.48408 3.9418,25.22946 8.0679,37.27651 5.10715,13.27373 12.28756,25.64064 17.38146,38.87395 1.92117,3.18291 3.97697,7.58808 8.00794,8.22609 3.50699,-0.68384 2.84205,-5.47803 3.35437,-8.10622 0.54871,-3.09301 -0.18538,-7.20316 2.19773,-9.562 2.67917,1.90129 3.0944,5.93217 4.54616,8.78495 2.55782,6.96317 4.18977,14.28667 7.34701,21.05737 2.23926,9.10165 6.7144,17.3934 9.91023,26.16226 1.92056,5.67277 4.0889,11.21276 6.80054,16.56472 4.81779,11.67127 8.49655,23.81097 14.28577,35.07724 4.75521,9.44926 2.45756,20.31975 3.05487,30.46148 -0.54104,3.49752 0.47511,6.61374 2.60498,9.3884 7.87691,13.34708 15.54669,26.83477 22.94409,40.41093 4.31632,5.69629 10.97475,9.02086 16.43998,13.48282 8.38277,5.8974 16.64447,12.04987 24.81358,18.18498 8.87336,2.27005 18.22765,1.08239 27.29819,1.34105 9.94034,-0.29975 19.98747,0.14062 29.86218,-0.9296 4.59079,-2.48299 8.74071,-5.81739 13.49052,-8.10751 14.55468,-8.4139 28.88542,-17.20611 43.66202,-25.23356 13.97109,-8.67836 29.79586,-14.94884 41.60712,-26.71124 9.10169,-9.27919 13.41575,-21.81267 20.61968,-32.41477 8.22372,-13.29446 15.34463,-27.22483 23.25445,-40.69335 4.3155,-5.71092 6.98368,-12.39275 8.31382,-19.39612 1.82969,-5.83133 3.31157,-11.7477 4.43984,-17.74412 1.51763,-4.32684 5.91365,-8.48673 3.66324,-13.39372 -2.67898,-6.19522 -4.56599,-13.07819 -3.13729,-19.80331 0.77749,-1.23748 2.41543,0.9071 3.39001,1.14584 5.02333,3.52973 11.73806,0.91538 16.50618,-1.8435 7.01794,-4.30607 11.58196,-11.38487 16.8388,-17.51595 5.62387,-8.09006 10.54497,-16.81901 13.3786,-26.28201 2.59662,-4.9045 5.83425,-9.56352 7.46623,-14.9953 3.18328,-7.54503 7.92971,-14.82511 7.6468,-23.34884 0.32138,-17.16776 0.944,-34.39297 -0.20088,-51.53915 -0.13536,-2.49922 -0.81106,-5.53757 -3.78743,-5.94952 -3.97251,-1.11301 -9.14821,-3.60395 -12.56215,0.0518 -2.724,2.61094 -5.97671,4.47694 -9.01554,6.57915 -1.74979,1.07341 -3.12017,4.64729 -5.47866,3.74423 -1.77878,-4.36057 2.28267,-8.45171 2.50227,-12.79217 1.81234,-7.85176 1.65177,-16.20045 4.56717,-23.76031 1.06861,-2.71756 4.72513,0.29834 5.81885,-2.52927 2.75259,-5.70769 1.64579,-12.41688 2.20798,-18.5544 0.55224,-18.27421 0.0681,-36.63563 1.25439,-54.85403 3.17123,0.30398 5.06806,3.78568 7.60566,5.47125 1.50998,1.58094 5.28398,3.52234 6.21572,0.36272 1.57321,-9.75876 -2.8886,-19.27154 -2.88026,-28.97005 0.56374,-1.2738 2.04601,-2.66885 3.26365,-1.1156 8.21963,5.00375 16.63854,9.90587 25.55089,13.52655 3.48639,-0.28717 2.44473,-5.05115 1.60158,-7.26276 -4.05399,-12.50157 -7.7785,-25.2195 -13.9553,-36.87755 -3.84007,-8.76045 -9.66157,-16.56143 -13.10753,-25.4796 -0.78641,-1.56154 0.34595,-2.33415 1.8165,-2.34136 10.20615,-1.86489 20.8115,-1.20348 30.91182,-3.74856 2.77758,-0.49529 3.06177,-4.33522 0.57779,-5.43115 -6.91795,-4.06687 -14.61108,-6.37502 -21.68152,-10.19603 C 566.49444,111.6372 547.85732,103.11346 530.01891,93.360501 517.04673,84.760574 504.73969,75.006819 490.92513,67.673092 478.73441,61.136245 465.14159,57.758801 451.80463,54.426482 442.61675,53.246036 433.23748,53.711441 424.03187,54.550059 413.38883,44.875724 402.2664,35.160926 388.51863,30.205188 368.9929,22.3154 347.46026,22.280647 326.75085,23.215356 c -14.75181,2.179721 -29.86539,2.468201 -44.65083,0.827826 -8.72507,-1.385972 -17.08437,-4.229064 -25.30497,-7.373929 -0.42113,-0.08341 -0.85243,-0.13031 -1.28192,-0.103677 z m 81.19497,19.290327 c 17.33841,-0.154398 35.33635,0.322986 51.28662,7.771981 12.61672,5.314955 21.76193,15.811836 32.45275,23.969256 5.10294,1.876889 10.73041,-0.155847 16.0055,0.156302 10.15936,-0.217425 20.76097,-0.715938 30.26296,3.489272 17.84339,6.567898 34.55434,15.983458 49.48072,27.75126 9.54546,7.104916 20.539,11.818366 30.65959,17.959706 5.06316,1.9169 10.33715,4.22942 14.06006,8.28009 -5.2064,1.11501 -10.79313,-0.26535 -15.9284,0.90933 -1.70549,2.45335 1.37778,5.27021 2.36464,7.45288 8.91169,12.9566 18.3003,25.63183 25.80004,39.49343 1.26097,2.90516 4.31622,4.92208 5.06907,7.99904 -0.024,3.41196 -4.23519,2.47996 -5.83937,0.76138 -5.59674,-3.86195 -10.96529,-8.41387 -17.28267,-11.01132 -3.40064,-0.3494 -3.93118,4.41337 -3.89543,6.8891 -0.20324,2.96392 0.88842,6.56491 -0.10692,9.20777 -3.12283,1.11725 -8.56797,0.0951 -9.18186,4.52829 -0.25057,8.7836 2.54361,17.35247 2.5876,26.11787 0.41585,11.25644 1.30291,22.70637 -0.6523,33.85365 -1.90712,4.91842 -5.57785,9.18766 -5.8755,14.67843 -2.85405,10.75187 -3.86816,21.83566 -5.37989,32.82056 -0.10533,2.88108 -2.21626,4.85749 -4.78316,5.77026 -5.4214,3.95861 -7.16301,11.06801 -10.62134,16.5063 -1.01216,1.29563 -1.63047,3.99144 -3.45492,4.1977 -2.10725,-1.60292 -3.49234,-6.20053 -6.85777,-4.40194 -2.56364,0.52816 -5.52025,3.74778 -7.91398,1.24628 -3.93593,-2.81159 -7.60368,-6.82737 -7.66235,-11.89149 -1.16528,-10.97297 -2.29404,-22.11248 -6.06076,-32.59117 -3.12202,-13.09244 -8.58314,-25.64861 -15.71349,-37.0471 -1.78974,-2.11679 -4.17405,-6.73309 -7.55003,-4.68489 -2.14617,2.76264 0.57985,6.45109 1.33484,9.28553 1.73642,4.30891 1.98071,6.49538 8.08091,29.94266 6.75451,25.35502 -7.63438,-17.87835 -8.29151,-18.37516 -8.68881,-17.5134 -21.39107,-32.67575 -35.31484,-46.2538 -3.70275,-3.75727 -8.75469,-5.94026 -14.06005,-5.75837 -16.63701,-0.76769 -33.46198,-1.72737 -50.01208,0.59291 -4.4246,0.71885 -5.4454,5.82228 -8.41833,8.4734 -21.46137,24.87695 -40.75855,51.62096 -58.08589,79.52426 -3.55669,6.48347 -7.76459,12.59397 -10.91952,19.23633 -0.93668,1.67336 -1.05163,4.95803 -3.2561,5.38902 -2.45444,-2.4285 -0.43187,-6.40499 0.16132,-9.21378 2.74159,-6.3643 3.75268,-13.4186 7.4978,-19.3394 2.29568,-5.82793 4.40866,-11.74683 7.58714,-17.22247 7.46247,-15.28855 17.10225,-29.33637 27.05704,-43.07735 1.71803,-2.75655 2.91927,-5.76538 4.74428,-8.4518 0.6077,-2.66302 -3.34549,-2.14399 -4.7432,-1.30676 -10.17114,5.16416 -17.88678,13.98428 -25.72707,22.0497 -10.67106,11.7836 -19.37767,25.21128 -27.54522,38.79857 -6.52408,13.55354 -12.96666,27.20828 -18.17038,41.33307 -1.91612,7.14239 -4.22437,14.15297 -6.88608,21.05774 -4.67086,13.67073 -5.77655,28.22213 -10.31617,41.92171 -1.95344,6.82292 -1.40642,14.35955 -3.78925,20.93438 -3.8414,-3.65181 -4.29931,-9.4436 -5.41494,-14.40241 -2.27929,-17.44376 -1.43727,-35.36688 0.33581,-52.8579 0.56576,-6.62731 3.18184,-13.25648 2.07575,-19.89283 -2.50247,-0.7199 -5.08039,0.69272 -5.4279,3.36518 -3.89572,10.45494 -6.45494,21.43908 -6.40178,32.64515 -0.24728,16.22994 -1.20766,32.80977 2.66698,48.71535 3.43608,7.96396 2.91975,16.7689 5.80697,24.91655 0.87603,4.47677 3.45622,9.50445 1.1796,13.86468 -2.53521,0.53122 -4.12543,-2.72681 -5.65577,-4.33066 -6.02924,-8.54961 -12.45763,-17.17698 -15.63573,-27.26046 -3.31656,-7.34359 -4.24237,-15.45546 -6.77791,-23.02376 -3.77164,-14.38021 -3.29418,-29.78088 -8.54247,-43.80661 -1.95245,-2.08407 -5.34552,0.25533 -5.43006,2.77659 -1.84275,10.28414 -3.07319,20.66104 -5.02615,30.93558 -2.90602,16.90243 -2.71274,34.44549 -7.45068,50.90953 -0.19617,1.59241 -1.93065,2.65937 -2.87702,0.95145 -5.01997,-7.3179 -7.59282,-16.01139 -10.27368,-24.39214 -2.52574,-7.37146 -2.0993,-15.2782 -4.51386,-22.6771 -2.90682,-10.10684 -2.48242,-20.85612 -5.12701,-30.9852 -1.94833,-2.91075 -4.92987,0.33678 -6.82862,1.47847 -2.78956,0.45103 -2.21587,-3.64162 -3.03887,-5.29266 -4.03198,-18.09093 -8.11474,-36.4354 -9.22844,-54.93588 -0.48125,-10.29068 0.49694,-20.51432 3.05157,-30.50713 0.19501,-2.86491 1.81745,-7.334 -1.21347,-9.20964 -3.74539,-0.77961 -5.79458,4.4028 -9.30822,4.09522 -2.07556,-5.88176 1.51524,-12.05685 5.59854,-16.20918 3.25509,-4.016 8.09841,-6.89444 10.43786,-11.56211 0.87923,-3.72882 -3.36288,-5.50057 -6.43011,-5.04667 -6.96724,-0.11087 -13.8229,2.39023 -20.74504,1.93314 0.56876,-4.82618 6.07204,-6.96621 9.65741,-9.45345 11.81286,-7.74507 21.05488,-18.61587 29.42524,-29.83746 15.8487,-19.05523 32.62992,-37.45402 51.46698,-53.61878 3.94282,-3.78268 11.10371,-5.84538 11.32127,-12.21406 0.18378,-2.48156 -2.22076,-4.08859 -4.47862,-3.06602 -14.48736,2.85156 -29.17684,5.74324 -43.78176,7.01977 -1.44675,-3.08009 1.35118,-6.16372 4.46025,-6.34587 6.58734,-0.27825 13.01262,-2.03293 19.01854,-4.72115 12.50563,-4.84939 25.77151,-8.0225 37.25553,-15.201741 9.31729,-5.258908 19.34182,-9.51802 27.5193,-16.546436 9.90631,-6.496945 20.47537,-11.971057 31.576,-16.076351 4.42199,-2.580655 9.31987,-4.090045 13.98879,-6.061841 2.94386,-1.858418 2.54928,-6.301048 1.43203,-9.056582 -5.30642,-3.895711 -12.08499,-5.644646 -16.9252,-10.228344 10.58268,-1.951094 21.49669,-1.390842 32.18333,-2.769373 5.82738,-0.793662 11.54036,-2.082969 17.46262,-1.72191 0.8053,-0.0058 1.61059,-0.0118 2.41589,-0.01757 z m 65.59165,286.113927 c 2.4466,0.28365 5.69352,4.05359 2.69667,5.83936 -9.57921,4.97543 -19.69679,8.92436 -29.63638,13.13778 -2.50495,0.5821 -6.65677,3.49419 -8.24985,-0.0529 -1.67325,-3.62439 2.6691,-5.89187 5.36526,-7.04029 9.43573,-3.91593 18.84924,-7.93432 28.38903,-11.58046 0.46926,-0.12307 0.94322,-0.31612 1.43527,-0.30347 z m 27.31014,11.06208 c 7.0766,2.2677 12.77437,7.45615 19.28205,10.97462 3.30282,2.51282 7.9742,3.74056 10.30898,7.26489 0.0927,2.85645 -3.93093,2.61245 -5.90781,3.05487 -7.42065,1.30371 -14.56018,3.69837 -22.12159,4.22194 -10.41908,1.79622 -20.66598,4.39841 -31.03926,6.39771 -3.14774,0.61614 -8.10405,2.64999 -6.78433,6.74221 1.50395,3.79466 6.66393,2.48995 9.81147,3.30254 17.15809,1.84448 44.08815,1.03517 61.1713,3.39215 0.81126,0.73897 -5.9594,2.38764 -11.3476,2.77654 -4.66895,3.44493 -3.45565,10.53461 -6.32078,15.02364 -4.47544,9.46599 -12.69439,17.0526 -22.59535,20.69721 -3.64513,1.75707 -7.26731,3.64172 -11.45141,3.00393 -9.43583,-0.0308 -19.66708,1.67387 -27.56959,-4.36159 -1.3983,-1.11914 -10.77806,-7.819 -11.14665,-9.58753 5.50815,-1.5731 17.666,6.63474 22.84725,8.3264 6.59301,0.82594 13.37544,0.20592 19.4804,-2.54332 9.7614,-2.0007 23.53905,-19.50635 27.89074,-28.19027 -7.51974,0.68003 -6.64739,-0.23618 -9.07334,2.49045 -4.28387,4.81482 -16.98376,14.72399 -21.15227,13.86193 -1.68266,-0.30902 -6.83521,-0.28893 -9.29761,-2.17799 -5.8628,-5.59763 -3.10619,-10.51334 -3.10619,-10.51334 -9.53606,1.12766 -11.18069,-0.24996 -14.60365,0.40049 -6.68664,5.5735 -24.97676,33.5276 -9.24188,3.63395 0,0 11.22533,-7.28271 -4.65002,-5.02154 -6.72806,0.37342 -16.05579,0.0212 -18.49979,7.25304 -2.53795,8.93862 0.27227,19.09124 -4.96676,27.29503 -1.16976,1.91026 -2.28799,4.91425 -4.1557,5.73892 -3.62995,-7.06396 -4.48914,-15.22098 -5.5812,-22.98419 -0.50803,-6.20464 -1.2052,-12.82822 2.16955,-18.44128 2.99833,-7.31198 4.33608,-15.50713 9.08686,-21.9706 4.17904,-3.66085 10.25725,-3.66622 14.91971,-6.6299 5.92113,-2.39265 12.16228,-4.01698 17.94146,-6.9269 4.89706,-1.57786 9.93842,-2.74922 14.6383,-4.97609 10.35224,-3.81708 20.45825,-8.56968 31.06471,-11.52792 z m 127.78789,14.78255 c 2.82561,0.93502 5.05304,3.39307 4.30366,6.55322 -1.2736,12.06825 -2.86364,24.345 -5.50782,36.23389 -2.83184,9.67247 -8.86118,18.15039 -12.89069,27.41287 -3.1777,6.00168 -3.99413,13.30589 -9.26695,18.08172 -3.95117,3.74699 -8.14601,8.26841 -13.65183,9.40649 -1.56826,-2.47558 1.35561,-5.32041 2.73944,-7.33337 6.31382,-6.5007 10.19833,-14.9907 11.35993,-23.95122 1.31367,-8.00191 1.67245,-16.11611 2.15734,-24.19858 3.79805,-4.8168 8.07466,-9.37312 11.5837,-14.34734 -8.3e-4,-6.22926 -1.94551,-12.70696 -0.23975,-18.8227 1.95099,-3.7381 4.95488,-6.81262 7.76386,-9.91191 0.5497,0.29231 1.0994,0.58462 1.64911,0.87693 z m -297.09393,7.66235 c 7.21774,0.0171 13.73896,3.64018 20.9038,4.63844 2.95986,0.92427 6.55108,0.87572 9.13434,2.55736 1.83812,3.86353 3.40152,8.42043 2.82086,12.70362 -2.82677,4.04834 -8.42747,1.12497 -12.29664,0.81566 -7.76325,-1.5957 -15.89337,-1.92662 -23.40698,-4.52426 -3.78648,-1.50995 -4.10294,-6.22974 -2.96343,-9.53608 0.78669,-2.94055 1.78534,-7.27689 5.80805,-6.65474 z m -7.92262,27.65033 c 18.04171,6.97588 17.01939,6.026 24.73051,10.3972 3.09728,2.31145 7.39456,4.25685 8.608,8.16091 -0.53476,2.17883 -3.89557,0.80367 -5.45234,1.35921 -7.71204,-0.0163 -15.59206,0.88577 -23.15916,-0.49524 -3.91157,-1.23496 -6.07865,-6.08915 -8.02845,-8.95182 -4.84316,-5.57304 -6.25669,-9.07921 -5.3723,-12.44148 0.9608,-0.81726 8.67374,1.97122 8.67374,1.97122 z m 224.53003,31.26929 c 2.56549,1.08643 0.27716,4.56289 -0.17805,6.39887 -4.63034,10.64385 -9.8048,21.12605 -15.9145,30.99815 -4.58039,4.90656 -10.66639,2.74866 -16.7281,4.83568 -4.51992,0.86441 -10.21104,5.51566 -14.73775,5.97908 -2.97854,-0.33228 -1.42116,-4.30684 -1.14476,-6.16876 1.42568,-6.18104 6.9012,-10.32088 12.82139,-11.81366 11.67049,-3.39399 21.80714,-10.93357 28.90179,-20.74735 2.81676,-2.67307 3.39234,-7.08583 6.50911,-9.38697 0.14782,-0.0631 0.30921,-0.10416 0.47087,-0.095 z m -226.26667,0.32986 c 9.05512,-0.70671 24.03717,-2.81761 34.85167,-6.57191 7.37984,-0.45972 -13.70586,11.68415 -21.05506,10.61159 -6.15693,0.6344 -15.25293,0.85163 -21.36305,-0.4512 -2.13325,-0.74397 -7.73427,-9.65515 -6.0062,-9.22085 0,0 8.0049,4.21949 13.57264,5.63237 z m 124.18626,7.39405 c 4.30636,-0.49529 5.69616,5.19198 3.8166,8.23257 -1.74418,3.16646 -2.77864,6.68714 -3.59088,10.12683 -3.27811,0.83289 -3.31293,-3.55206 -3.47366,-5.69634 0.0907,-3.93251 -1.18641,-8.32412 0.53291,-12.00536 0.72946,-0.63655 1.8133,-0.58186 2.71503,-0.6577 z m -90.62738,50.4095 c 1.63418,3.35848 -1.387,6.98036 -2.83106,9.87709 -2.70163,3.97615 -13.90787,27.03194 -16.84806,30.85161 -2.01386,1.31072 6.9863,-23.02376 6.9863,-23.02376 2.52257,-5.94068 7.41435,-10.48835 10.656,-16.03207 0.56956,-0.62239 1.14796,-1.50796 2.03682,-1.67287 z m 83.43266,0.0929 c 3.84882,1.36903 6.16524,5.35611 9.23151,7.88182 5.54306,6.12993 12.32954,11.78922 15.4554,19.63568 0.0917,1.99775 -3.03334,0.88016 -3.96131,0.12959 -5.3624,-2.95854 -8.9583,-8.36132 -14.29549,-11.24783 -4.78953,-0.5368 -8.62714,4.46576 -9.2715,8.81143 -0.87981,3.3727 -3.32458,6.39048 -5.94089,8.63864 -5.50853,1.81021 -11.53713,0.12201 -17.22679,0.34729 -7.22043,0.91346 -15.34563,-1.89983 -21.60873,4.81062 -5.28347,-4.78427 -14.77967,-7.15711 -20.28866,-8.02794 -7.62918,1.65889 -18.94841,-6.45371 -22.92205,-11.19879 -1.76085,-1.75038 10.08936,5.06574 13.21779,4.70789 3.72007,3.76918 6.94364,3.57523 10.54906,4.00845 4.47347,0.53753 10.67203,-0.6707 15.04193,0.89331 9.58039,2.3086 17.5675,-5.42905 26.74964,-6.4204 5.23994,-0.90841 10.85813,-0.12745 15.89492,-1.88453 4.29105,-4.84004 6.24088,-11.40526 7.58675,-17.63042 0.24969,-1.08567 0.18255,-3.42004 1.78842,-3.45481 z m 125.67763,28.52402 c 1.70468,1.65769 0.65596,4.79225 0.0648,6.84482 -2.60184,4.9067 -4.78777,10.00395 -6.74843,15.20693 -10.1874,22.32754 -23.91982,42.72207 -35.51274,64.31084 -3.36756,5.92544 -6.58828,12.38988 -12.77368,15.88226 -14.81327,10.53858 -31.34993,18.42198 -46.86169,27.88945 -13.84476,8.01268 -27.66815,16.11062 -41.44283,24.20558 -4.80811,1.90865 -10.2303,0.74797 -15.30633,1.16522 -11.89387,-0.33055 -24.01645,0.56035 -35.59184,-2.39441 -9.98461,-3.37714 -17.01431,-11.80763 -25.48341,-17.67666 -5.76287,-4.21248 -11.90979,-8.53267 -14.78812,-15.35885 -5.25867,-10.77429 -11.29495,-21.21627 -15.54592,-32.37342 -1.05594,-2.49205 2.8012,-1.36952 3.525,-0.28725 2.99731,2.05042 5.20257,6.00755 8.98747,6.51111 4.4114,-1.84743 6.95647,-6.6703 11.10527,-8.77043 2.59866,2.58993 1.28987,7.29784 3.61681,10.05663 4.91403,1.37246 10.16269,-0.65684 14.79896,-2.3322 2.889,-2.02166 5.63585,-1.72219 8.27664,0.50058 10.59416,5.95673 23.25875,4.76288 34.94165,5.70631 6.91607,0.64296 13.93382,-0.71612 19.87201,-4.39777 3.75304,-1.69914 7.78286,-5.49309 12.07241,-3.24583 4.69835,0.89759 9.33528,4.41237 14.23006,2.99783 3.61197,-1.53767 2.04297,-6.73217 4.70109,-8.87621 3.29432,-1.48603 7.11821,-0.62924 9.35071,2.18501 2.8887,2.35503 5.19296,6.04918 8.87045,7.13721 5.92756,-1.08609 10.43397,-5.77819 15.30111,-9.01743 6.97642,-5.5814 14.88181,-10.00693 20.81799,-16.82215 7.15176,-7.07959 11.61248,-16.32081 16.18095,-25.15551 1.79173,-5.41302 4.92796,-11.1298 10.49341,-13.35458 3.99307,-1.05729 8.68825,-1.29649 11.56534,-4.81988 7.35983,-8.0947 13.4796,-17.289 20.62624,-25.51524 0.19857,-0.11582 0.422,-0.21392 0.65662,-0.20196 z m -190.33187,35.62048 c 5.26565,-0.24863 9.77033,3.31648 15.09683,2.7755 9.29189,0.70731 18.82702,-0.3205 27.92578,1.95444 8.1586,2.36169 15.42021,7.04744 23.46757,9.72862 3.12822,1.02401 7.51282,0.65145 9.57928,3.59412 0.77809,3.37473 -3.5597,4.81745 -6.13312,4.3987 -4.35861,0.99877 -7.07614,-3.2068 -11.08151,-3.83495 -5.72981,-1.45363 -10.64309,-5.9265 -16.82684,-4.90166 -12.37764,-0.18378 -24.82657,0.079 -37.15997,-0.38123 -6.45048,-1.98648 -14.39745,-5.40132 -20.5491,-0.81784 -4.70678,2.66887 -9.66027,6.72583 -15.39598,5.99813 -3.2877,-1.13671 -1.615,-5.10288 0.70875,-6.30274 7.79,-5.6472 16.8064,-9.88813 26.24825,-11.85039 1.36225,-0.22017 2.73945,-0.35416 4.12006,-0.3607 z m 44.63277,26.55632 c 5.79346,-0.24848 9.86231,4.61888 13.53628,8.35783 2.66811,2.69819 -1.39105,4.92097 -3.50017,6.01325 -5.83624,3.25511 -12.24427,5.96077 -19.0817,5.40484 -15.13392,-0.007 -30.32084,0.28543 -45.42242,-0.46398 -4.82449,-2.40822 -9.58654,-5.41501 -13.02869,-9.589 -1.92428,-3.49697 2.71634,-6.03833 4.835,-7.9626 2.48367,-2.40005 6.22824,-1.93286 8.81684,-0.0961 3.46714,2.20933 7.18066,4.1747 11.43574,3.94619 11.26129,0.5087 22.84262,1.60918 33.91197,-1.04973 2.73051,-0.64109 4.02617,-3.57256 6.4571,-4.48293 0.67627,-0.088 1.35988,-0.0689 2.04005,-0.0778 z"
       id="path2609"
       transform="matrix(7.5,0,0,-7.5,0,5120)"
       sodipodi:nodetypes="ccccccccccccccccccccccccccccccccccccccccccccccccccccccccccccccccccccccccccccccccccccccccccccccccccccccccccccccccccccccccccccccccccccccccccccccccccccccccccccccccccccccccccccccccccccccccccccscccccssccccccccccccccccccsccccsccccccccccccccccccccccccccccccccccccccccsccccccccssccccccccccccccccccccccccccccccscccccccccccccccccccccccccccccccccccccccccccccccccccsccccccccccss" />
  </g>
</svg>
